<svg width="59" height="59" viewBox="0 0 59 59" fill="none" xmlns="http://www.w3.org/2000/svg">
<g clip-path="url(#clip0_676_13769)">
<path d="M19.5021 38.5869C18.9071 39.4559 18.3101 40.3249 17.7151 41.1939C17.1161 42.0628 15.9402 42.2499 15.1193 41.6055L15.089 41.5847C14.3045 40.9714 14.137 39.8301 14.7018 39.0006C15.2968 38.1316 15.8938 37.2626 16.4888 36.3937C17.0838 35.5247 18.2496 35.3376 19.0725 35.9716C19.0846 35.98 19.0927 35.9841 19.1068 35.9924C19.8995 36.6057 20.0709 37.7554 19.5021 38.5848V38.5869Z" fill="#1D384D"/>
<path d="M24.0605 41.4392C23.3989 42.3955 22.7373 43.3539 22.0758 44.3102C21.4142 45.2665 20.1113 45.4702 19.1976 44.7613L19.1673 44.7343C18.3 44.0607 18.1104 42.8009 18.7377 41.8903C19.3993 40.934 20.0568 39.9798 20.7184 39.0193C21.3759 38.0672 22.6728 37.8593 23.5845 38.5599C23.5966 38.5682 23.6107 38.5765 23.6187 38.5869C24.5002 39.2605 24.6938 40.5245 24.0605 41.4413V41.4392Z" fill="#1D384D"/>
<path d="M27.8824 44.4287C27.3257 45.2333 26.7751 46.0357 26.2184 46.8402C25.6617 47.6448 24.5705 47.8173 23.8041 47.2228L23.7779 47.202C23.0497 46.6324 22.8884 45.5783 23.4148 44.8133C23.9715 44.0088 24.5221 43.2063 25.0788 42.4018C25.6314 41.6035 26.7186 41.4289 27.481 42.0151C27.4931 42.0234 27.5012 42.0276 27.5112 42.0359C28.2495 42.6014 28.4128 43.6595 27.8824 44.4287Z" fill="#1D384D"/>
<path d="M30.8576 44.8964C31.4102 45.4099 31.4344 46.6303 30.6216 47.6801H27.7354C27.8665 47.1063 28.0298 46.6427 28.165 46.3039C28.5865 45.2748 28.9233 45.0087 29.0242 44.9359C29.2723 44.7488 29.5264 44.6615 29.7019 44.6179C29.9379 44.5867 30.4865 44.5534 30.8556 44.8964H30.8576Z" fill="#1D384D"/>
<path d="M33.5258 47.572H32.1139C32.1018 47.1604 32.3882 46.8153 32.725 46.7737C33.1204 46.7259 33.5298 47.0814 33.5258 47.572Z" fill="#1D384D"/>
<path d="M44.9639 39.1545C44.9639 39.1545 44.9518 39.1712 44.9478 39.1816C44.4334 39.8905 43.4552 40.0381 42.7695 39.5079C40.0889 37.454 37.4084 35.4 34.7299 33.3398C34.3628 33.1527 33.9211 33.265 33.6851 33.5955C33.4652 33.9136 33.4834 34.3564 33.7355 34.6558C36.2769 36.7887 38.8142 38.9175 41.3536 41.0443C41.9728 41.5702 42.0918 42.4995 41.6198 43.1689C41.6158 43.1772 41.6117 43.1855 41.6037 43.1959C41.1014 43.9048 40.1333 44.0462 39.4596 43.514L32.1784 37.7118C31.8416 37.5205 31.4281 37.5849 31.1841 37.8552C30.9057 38.1629 30.9138 38.6805 31.2305 39.0111C33.195 40.67 35.1575 42.329 37.122 43.988C37.7533 44.5181 37.8602 45.4744 37.362 46.1417C37.3539 46.1501 37.3499 46.1584 37.3418 46.1625C36.8275 46.8527 35.8634 46.9754 35.2059 46.4328C32.8844 44.5223 30.5669 42.6097 28.2494 40.6992C28.0598 40.5474 27.723 40.3166 27.247 40.1857C27.0715 40.1379 26.9061 40.1108 26.7528 40.0983C26.3635 40.0651 26.0267 39.7969 25.9218 39.4102C25.7282 38.6951 25.2583 37.6203 24.1348 36.9966C23.2816 36.5205 22.4386 36.5205 21.8859 36.5975C21.543 36.6453 21.2203 36.4623 21.0529 36.1505C20.2764 34.6828 18.6991 33.8117 17.0654 34.0051C15.1816 34.2317 13.691 35.8241 13.5337 37.8012C12.9891 37.8885 12.5555 37.8219 12.2186 37.7014C10.3187 37.0278 9.2275 33.9011 9.46349 29.9262C10.4498 29.7225 11.1194 28.8099 11.0428 27.8764C10.9802 27.0989 10.4155 26.4129 9.63089 26.1863C9.78216 25.0865 10.1029 23.6022 10.8189 21.9723C11.3877 20.6772 12.0492 19.6523 12.622 18.8893C12.7531 18.7417 13.2796 18.1638 14.165 18.064C15.1977 17.9413 15.9177 18.5588 16.0367 18.6627C16.66 18.9746 17.3901 19.276 18.2272 19.513C20.4821 20.1512 22.4749 20.0348 23.794 19.8248C22.6181 21.9578 21.4381 24.0866 20.2623 26.2175C19.9678 26.7476 19.752 27.3214 19.6673 27.9243C19.5704 28.5978 19.5906 29.4315 20.0384 30.1695C20.6072 31.1071 21.7326 31.6933 23.0174 31.7245C24.3103 31.7598 25.5366 31.1424 26.4099 30.157C27.7795 28.602 29.153 27.047 30.5225 25.4961L44.6775 36.928C45.3431 37.4664 45.4702 38.4519 44.9639 39.1524V39.1545Z" fill="url(#paint0_linear_676_13769)"/>
<path d="M47.6324 37.6742H47.6243C47.118 37.8094 46.6037 37.3271 46.7005 36.7366C46.7086 36.5724 46.7086 36.2772 46.5876 35.9467C46.4323 35.535 46.1701 35.2856 46.043 35.1775C41.5391 31.5726 37.0333 27.972 32.5294 24.3671C32.2733 24.2403 31.3152 23.8017 30.1232 24.1073C29.0058 24.3942 28.3785 25.1592 28.193 25.4024C27.0473 26.7454 25.8997 28.0863 24.7581 29.4293C24.6774 29.4771 23.6084 30.1153 22.5112 29.5519C21.7447 29.1569 21.4624 28.4231 21.3938 28.2443C22.8137 25.6519 24.2296 23.0574 25.6455 20.4609C25.8654 20.043 26.1175 19.7041 26.3797 19.436C28.9836 16.7251 34.2438 18.567 34.8065 18.7707C35.3249 19.093 38.0377 20.7083 41.2709 19.7478C42.9853 19.2405 44.1188 18.224 44.6836 17.6273C45.5811 18.3653 47.0515 19.7811 48.0922 22.0408C48.7457 23.4524 49.02 24.7559 49.1451 25.7101C48.07 25.7268 47.3076 26.6352 47.3661 27.4606C47.4246 28.3462 48.427 29.1715 49.5525 28.8929C49.5828 29.5062 49.8813 37.0589 47.6263 37.6742H47.6324Z" fill="#244E64"/>
<path d="M16.301 14.7294L13.7415 12.4301L14.2558 11.8355L16.7467 14.3094L16.301 14.7294Z" fill="#5279A6"/>
<path d="M41.9929 14.193L44.1127 12.1765L44.6331 12.7378L42.5133 14.7294L41.9929 14.193Z" fill="#D1A423"/>
<path d="M14.615 8.00208C15.6134 7.27238 16.8256 6.50942 18.2596 5.82546C21.2588 4.39517 24.0301 3.88792 26.031 3.70913C26.152 4.17481 26.273 4.64048 26.394 5.10824C24.7119 5.339 22.582 5.79219 20.2322 6.70691C18.1225 7.52808 16.3939 8.50517 15.0648 9.38247C14.9155 8.92304 14.7683 8.46151 14.619 8.00208H14.615Z" fill="#9AD359"/>
<path d="M32.5739 3.43678C34.3911 3.78187 36.513 4.32031 38.8204 5.17474C41.0915 6.01462 43.0338 6.973 44.6332 7.88356C44.2823 8.38458 43.9313 8.88351 43.5804 9.38453C41.9426 8.42615 39.9035 7.40957 37.4831 6.55514C35.5408 5.8691 33.7417 5.42629 32.1685 5.13524C32.3036 4.56978 32.4407 4.00432 32.5759 3.43886L32.5739 3.43678Z" fill="#F1C659"/>
<path d="M49.587 11.9707C51.0694 13.9769 52.8383 16.8104 54.236 20.4776C55.2264 23.0783 55.7911 25.467 56.1199 27.4524C55.5571 27.521 54.9964 27.5916 54.4337 27.6602C54.0908 25.677 53.4898 23.2176 52.4006 20.5296C51.1118 17.3468 49.5527 14.8625 48.2356 13.0725C48.6854 12.7046 49.1352 12.3366 49.5849 11.9686L49.587 11.9707Z" fill="#96C753"/>
<path d="M55.6316 34.109C55.2867 35.8574 54.7099 38.009 53.7175 40.3561C52.6385 42.9069 51.3839 44.938 50.2968 46.4515C49.851 46.1563 49.4053 45.8611 48.9575 45.5679C49.7482 44.3954 50.557 43.0483 51.3254 41.5245C52.7756 38.6493 53.6691 35.9468 54.2359 33.687C54.6998 33.8283 55.1657 33.9676 55.6296 34.109H55.6316Z" fill="#5F732B"/>
<path d="M44.6938 49.3618L45.6357 50.8191C44.1209 51.8794 42.0152 53.1309 39.3387 54.1142C36.8821 55.0185 34.6695 55.4301 32.943 55.6214L32.8159 54.1142C34.4739 53.8585 36.5291 53.3886 38.7922 52.5051C41.2508 51.5447 43.2214 50.3805 44.6917 49.3618H44.6938Z" fill="#103439"/>
<path d="M14.8003 49.5531C16.1033 50.4699 17.7774 51.4782 19.8205 52.3513C22.4547 53.476 24.8508 54.0082 26.6983 54.2681C26.6358 54.7192 26.5753 55.1704 26.5128 55.6215C24.8851 55.5799 22.376 55.3117 19.5543 54.1538C17.017 53.1122 15.1654 51.736 13.9814 50.7028C14.2537 50.3203 14.526 49.9357 14.8003 49.5531Z" fill="#405B20"/>
<path d="M10.4943 45.543C9.48183 44.1875 8.34629 42.435 7.32167 40.2792C6.14377 37.8011 5.45599 35.5164 5.0405 33.687C4.57862 33.8408 4.11471 33.9926 3.65283 34.1464C3.93117 35.9966 4.53021 38.5849 5.90779 41.4018C6.96669 43.566 8.1809 45.2395 9.20551 46.4515C9.63512 46.148 10.0647 45.8444 10.4943 45.5409V45.543Z" fill="#918417"/>
<path d="M4.61887 27.6601C4.8488 25.7704 5.31673 23.3797 6.29294 20.7457C7.58177 17.2697 9.27803 14.6524 10.6314 12.8895C10.226 12.6504 9.82059 12.4134 9.4172 12.1743C7.97105 13.8832 5.94804 16.7064 4.58458 20.6688C3.65275 23.3734 3.30583 25.8078 3.18481 27.6601H4.6229H4.61887Z" fill="#437B6A"/>
<path d="M46.7651 6.51133C45.7546 6.51133 44.8389 6.9375 44.1774 7.6277C43.7598 8.06219 43.4492 8.60479 43.2798 9.20767V9.21183C43.183 9.54653 43.1326 9.89371 43.1326 10.2596C43.1326 11.0808 43.3847 11.8354 43.8204 12.4528C43.9676 12.6649 44.137 12.8603 44.3226 13.0349C44.968 13.6378 45.8272 14.0079 46.7671 14.0079C47.4206 14.0079 48.0358 13.8291 48.5622 13.5172C49.0765 13.222 49.5061 12.7959 49.8228 12.2886C50.1899 11.7065 50.4037 11.008 50.4037 10.2596C50.4037 8.19317 48.778 6.51133 46.7671 6.51133H46.7651ZM46.7651 12.1743C45.7405 12.1743 44.9075 11.3178 44.9075 10.2596C44.9075 9.20144 45.7425 8.34492 46.7651 8.34492C47.7877 8.34492 48.6268 9.20144 48.6268 10.2596C48.6268 11.3178 47.7917 12.1743 46.7651 12.1743Z" fill="#EFB93C"/>
<path d="M56.0391 26.9887C55.8112 26.9409 55.5752 26.9139 55.3352 26.9139C54.9862 26.9139 54.6434 26.9659 54.3247 27.0615C52.812 27.5126 51.7026 28.9554 51.7026 30.6622C51.7026 32.369 52.7051 33.6724 54.1048 34.188C54.4881 34.3315 54.9056 34.4105 55.3352 34.4105C55.4158 34.4105 55.4945 34.4063 55.5712 34.4021C57.4711 34.2753 58.9717 32.6517 58.9717 30.6622C58.9717 28.8431 57.7111 27.3214 56.0391 26.9867V26.9887ZM55.3352 32.5789C54.3106 32.5789 53.4776 31.7224 53.4776 30.6643C53.4776 29.6061 54.3126 28.7496 55.3352 28.7496C56.3578 28.7496 57.1968 29.6103 57.1968 30.6643C57.1968 31.7183 56.3618 32.5789 55.3352 32.5789Z" fill="#326B38"/>
<path d="M50.5611 46.0688C50.2283 45.6302 49.8068 45.2705 49.3227 45.0127C48.8346 44.7612 48.2779 44.6177 47.691 44.6177C45.6801 44.6177 44.0544 46.2996 44.0544 48.366C44.0544 48.813 44.1311 49.2433 44.2743 49.6425C44.4679 50.2038 44.7927 50.7027 45.2102 51.106C45.8596 51.7276 46.7309 52.1143 47.693 52.1143C49.6979 52.1143 51.3256 50.4387 51.3256 48.366C51.3256 47.5012 51.0432 46.7029 50.5632 46.0688H50.5611ZM47.693 50.2828C46.6644 50.2828 45.8314 49.4263 45.8314 48.3681C45.8314 47.3099 46.6664 46.4534 47.693 46.4534C48.7197 46.4534 49.5506 47.3099 49.5506 48.3681C49.5506 49.4263 48.7156 50.2828 47.693 50.2828Z" fill="#143A52"/>
<path d="M33.1505 54.0622C32.6584 52.5987 31.3091 51.5426 29.7157 51.5426C28.1223 51.5426 26.6943 52.659 26.2384 54.1974C26.1336 54.5404 26.0791 54.9104 26.0791 55.2909C26.0791 55.3948 26.0831 55.4988 26.0912 55.6027C26.2465 57.5278 27.8096 59.0391 29.7157 59.0391C31.6217 59.0391 33.201 57.5153 33.3442 55.5736C33.3482 55.4821 33.3522 55.3865 33.3522 55.2909C33.3522 54.8605 33.2796 54.4489 33.1505 54.0622ZM29.7157 57.2055C28.687 57.2055 27.8581 56.349 27.8581 55.2909C27.8581 54.2327 28.689 53.3762 29.7157 53.3762C30.7423 53.3762 31.5733 54.2327 31.5733 55.2909C31.5733 56.349 30.7423 57.2055 29.7157 57.2055Z" fill="#327139"/>
<path d="M11.9404 44.6199C11.295 44.6199 10.6899 44.7945 10.1655 45.098C9.69754 45.3683 9.29415 45.7446 8.98556 46.1915C8.55595 46.8048 8.30786 47.5553 8.30786 48.3682C8.30786 50.4408 9.93353 52.1164 11.9404 52.1164C12.9045 52.1164 13.7859 51.7256 14.4354 51.0915C14.7904 50.7527 15.0768 50.3411 15.2704 49.8754C15.4681 49.4159 15.579 48.9024 15.579 48.3682C15.579 46.3017 13.9533 44.6199 11.9424 44.6199H11.9404ZM11.9404 50.2828C10.9158 50.2828 10.0828 49.4263 10.0828 48.3682C10.0828 47.31 10.9178 46.4535 11.9404 46.4535C12.963 46.4535 13.802 47.31 13.802 48.3682C13.802 49.4263 12.967 50.2828 11.9404 50.2828Z" fill="#EFA007"/>
<path d="M4.67131 27.2549C4.34658 27.1551 4.00571 27.1031 3.65073 27.1031C3.50349 27.1031 3.36029 27.1114 3.22112 27.1301C1.41393 27.3463 0.0141602 28.9284 0.0141602 30.8472C0.0141602 32.9199 1.63983 34.5955 3.65073 34.5955H3.72334C4.2417 34.583 4.7298 34.4604 5.17353 34.2525C6.42001 33.6579 7.28932 32.3586 7.28932 30.8472C7.28932 29.1446 6.18604 27.706 4.67332 27.2549H4.67131ZM3.87663 32.8658C2.84798 32.8658 2.01901 32.0093 2.01901 30.9512C2.01901 29.893 2.85 29.0365 3.87663 29.0365C4.90326 29.0365 5.73424 29.893 5.73424 30.9512C5.73424 32.0093 4.89922 32.8658 3.87663 32.8658Z" fill="#254055"/>
<path d="M15.4376 9.13912C15.3368 8.65681 15.1472 8.20569 14.881 7.8107C14.2275 6.82114 13.1282 6.17252 11.8797 6.17252C9.86883 6.17252 8.24316 7.84812 8.24316 9.92079C8.24316 10.8896 8.60218 11.7752 9.1871 12.4404C9.50376 12.8001 9.88698 13.0953 10.3166 13.3053C10.7886 13.5402 11.319 13.6711 11.8797 13.6711C12.747 13.6711 13.5478 13.3531 14.177 12.8292C14.3707 12.6691 14.5441 12.4862 14.7035 12.2866C15.2097 11.6442 15.5163 10.8189 15.5163 9.92286C15.5163 9.65261 15.486 9.39275 15.4356 9.1412L15.4376 9.13912ZM11.8817 11.8355C10.8531 11.8355 10.0241 10.9748 10.0241 9.92079C10.0241 8.86678 10.8551 8.00611 11.8817 8.00611C12.9084 8.00611 13.7394 8.86262 13.7394 9.92079C13.7394 10.979 12.9043 11.8355 11.8817 11.8355Z" fill="#5279A6"/>
<path d="M32.9189 3.50541C32.814 1.53252 31.2287 -0.0391312 29.2904 -0.0391312C27.3521 -0.0391312 25.6538 1.64271 25.6538 3.70914V3.74448C25.6578 4.25173 25.7587 4.73405 25.9402 5.1727C26.4586 6.43251 27.6304 7.34099 29.0161 7.4491C29.1048 7.45325 29.1976 7.45741 29.2904 7.45741C29.4255 7.45741 29.5566 7.4491 29.6857 7.43662C31.0008 7.28902 32.1 6.42004 32.6143 5.22051C32.812 4.75483 32.9229 4.24758 32.9229 3.70914C32.9229 3.64054 32.9229 3.56985 32.9189 3.50541ZM29.2904 5.62382C28.2617 5.62382 27.4287 4.76731 27.4287 3.70914C27.4287 2.65098 28.2637 1.79447 29.2904 1.79447C30.317 1.79447 31.148 2.65513 31.148 3.70914C31.148 4.76315 30.313 5.62382 29.2904 5.62382Z" fill="#63956C"/>
<path d="M29.627 10.8688C29.629 11.3012 29.633 11.7336 29.635 12.166C30.0041 12.1681 30.3793 12.1827 30.7625 12.2097C34.4092 12.4696 37.4729 13.8125 39.8348 15.2886C40.0445 14.9622 40.2563 14.6358 40.4661 14.3094C39.4253 13.6109 38.0982 12.8562 36.4866 12.2284C33.7758 11.1765 31.3393 10.9062 29.627 10.8688Z" fill="#94C44F"/>
<path d="M27.9893 10.8044C26.7812 10.8772 24.6331 11.1204 22.1301 12.0705C21.0571 12.478 19.6674 13.11 18.1587 14.1037L18.7537 15.1993C19.7823 14.5486 21.0692 13.8604 22.6081 13.2846C25.1777 12.3221 27.4871 12.0372 29.1733 11.9769C29.1612 11.5736 29.1471 11.1724 29.135 10.7691C28.8607 10.7691 28.4633 10.7753 27.9893 10.8044Z" fill="#54A0A9"/>
<path d="M29.6855 7.21828H29.0159V9.74831L29.6855 9.91878V7.21828Z" fill="#609575"/>
<path d="M29.2883 13.3739C30.3577 13.3739 31.2246 12.4803 31.2246 11.3781C31.2246 10.2759 30.3577 9.38236 29.2883 9.38236C28.219 9.38236 27.3521 10.2759 27.3521 11.3781C27.3521 12.4803 28.219 13.3739 29.2883 13.3739Z" fill="#609575"/>
<path d="M41.0228 17.1285C42.0086 17.1285 42.8078 16.3047 42.8078 15.2886C42.8078 14.2725 42.0086 13.4488 41.0228 13.4488C40.037 13.4488 39.2378 14.2725 39.2378 15.2886C39.2378 16.3047 40.037 17.1285 41.0228 17.1285Z" fill="#D1A423"/>
<path d="M17.5133 17.3467C18.4991 17.3467 19.2983 16.523 19.2983 15.5069C19.2983 14.4908 18.4991 13.6671 17.5133 13.6671C16.5274 13.6671 15.7283 14.4908 15.7283 15.5069C15.7283 16.523 16.5274 17.3467 17.5133 17.3467Z" fill="#5279A6"/>
</g>
<defs>
<linearGradient id="paint0_linear_676_13769" x1="9.43121" y1="32.4085" x2="45.2745" y2="32.4085" gradientUnits="userSpaceOnUse">
<stop stop-color="#498556"/>
<stop offset="1" stop-color="#69AF2A"/>
</linearGradient>
<clipPath id="clip0_676_13769">
<rect width="59" height="59" fill="white"/>
</clipPath>
</defs>
</svg>
